<mxfile host="app.diagrams.net" modified="2024-03-28T05:34:17.879Z" agent="Mozilla/5.0 (Windows NT 10.0; Win64; x64) AppleWebKit/537.36 (KHTML, like Gecko) Chrome/123.0.0.0 Safari/537.36" version="24.2.0" etag="3UC2DMG74Evfbv9MmG0b" type="github">
  <diagram name="第 1 页" id="L8p_VI_V07kMXwrU9sQM">
    <mxGraphModel>
      <root>
        <mxCell id="0" />
        <mxCell id="1" parent="0" />
      </root>
    </mxGraphModel>
  </diagram>
</mxfile>
